<svg version="1.2" xmlns="http://www.w3.org/2000/svg" viewBox="0 0 300 300" width="300" height="300" fill="#000">
	<path id="Layer" fill-rule="evenodd" class="s0" d="m233.2 101.5c-4.8 17.9-9.6 35.8-14.3 53.8c-2.4 9-4.7 17.9-7.4 26.8c-2.6 8.7-5.9 17.9-10.6 25.7c-4.9 8.2-11.2 14.6-20 18.7c-3.6 1.6-7.2 2.7-10.9 3.5c-5.4 1.2-10.8 1.6-16.3 1.9c-13.5 0.8-42.1 0.7-55.6 0.7l8.2-30.7c6.3 0 12.6 0 18.8-0.2c6.1-0.1 12.7-0.4 18.7-1.9c6.5-1.5 11.4-4.1 15.8-9.4c3.9-4.9 6.5-10.9 8.7-16.6c3.9-10.4 8-25.3 10.8-36c3.3-12.1 6.4-24.2 9.5-36.3zm11.1 0l-24 89.2h44.6l24.1-89.2zm-58-33.5h-44.6l-7.8 29.1l-7.8 29.1c-2.7 9.7-5.2 19.4-8.1 29.1c-0.7 2.5-1.4 5-2.5 7.4c-0.4 1-0.8 1.9-1.5 2.8c-1 1.2-2.2 1.8-3.7 2.1c-2 0.5-3.9 0.6-6 0.6c-2.9 0.2-5.8 0.2-8.7 0.2q-9.5 0.1-19 0q-3.5 0-6.9-0.1c-1.4 0-2.8-0.1-4.3-0.3c-1.2-0.2-2.5-0.4-3.3-1.6c-0.8-1.2-0.8-2.8-0.6-4.1c0.1-1.1 0.3-2.3 0.5-3.4q0.6-2.5 1.2-4.9q1.7-6.6 3.5-13.1c0.8-2.8 1.5-5.7 2.4-8.5c0.5-1.8 1-3.7 1.8-5.4c0.6-1.2 1.3-2 2.6-2.5c1-0.4 2-0.4 3.1-0.5c2.9-0.2 5.8-0.2 8.8-0.2c10 0 20.1 0 30.1 0l6-22.3h-16.9h-16.9c-6.8 0-13.5 0-20.3 0.2c-4.8 0-9.6 0.2-14.3 0.5c-2.9 0.2-5.7 0.5-8.5 1.1c-3.8 0.7-7.2 1.9-10.4 4.1c-5.9 3.8-9 9.9-11.3 16c-3 7.8-6.8 22.7-8.8 30.7c-1.1 4.2-2.2 8.4-3.1 12.7c-0.6 3-1.2 5.9-1.1 9c0.2 5.5 2.8 9.9 7.9 12.2c1.5 0.6 3.1 1 4.8 1.4c2.4 0.4 4.8 0.6 7.3 0.8c3.7 0.2 7.4 0.3 11.1 0.4q7.6 0.1 15.3 0.1c14.2 0.1 40 0.1 54.1-0.1c6.2-0.1 12.4-0.3 18.5-0.8c4.3-0.3 8.5-0.8 12.7-2.1c3.2-1 5.9-2.4 8.5-4.7c3.4-3.1 5.2-6.7 6.9-10.8c2-5.1 3.6-10.4 5.1-15.6c3.6-12.1 6.9-24.2 10.2-36.3c4.7-17.4 9.4-34.9 14-52.3z" />
</svg>